<?xml version="1.0" encoding="UTF-8" standalone="no"?><!DOCTYPE svg PUBLIC "-//W3C//DTD SVG 1.1//EN" "http://www.w3.org/Graphics/SVG/1.1/DTD/svg11.dtd"><svg width="100%" height="100%" viewBox="0 0 512 512" version="1.1" xmlns="http://www.w3.org/2000/svg" xmlns:xlink="http://www.w3.org/1999/xlink" xml:space="preserve" xmlns:serif="http://www.serif.com/" style="fill-rule:evenodd;clip-rule:evenodd;stroke-linecap:round;stroke-linejoin:round;stroke-miterlimit:1.5;"><g><path d="M424.5,174.75l0,162.5c0,44.843 -36.407,81.25 -81.25,81.25l-162.5,0c-44.843,0 -81.25,-36.407 -81.25,-81.25l0,-162.5c0,-44.843 36.407,-81.25 81.25,-81.25l162.5,0c44.843,0 81.25,36.407 81.25,81.25Z" style="fill:#fff;"/><path d="M302.625,100.704c-3.976,-0 -7.204,-3.228 -7.204,-7.204c0,-3.976 3.228,-7.204 7.204,-7.204l40.625,0c48.819,0 88.454,39.635 88.454,88.454l-0,40.625c-0,3.976 -3.228,7.204 -7.204,7.204c-3.976,-0 -7.204,-3.228 -7.204,-7.204l0,-40.625c0,-40.867 -33.179,-74.046 -74.046,-74.046l-40.625,-0Zm114.671,195.921c0,-3.976 3.228,-7.204 7.204,-7.204c3.976,0 7.204,3.228 7.204,7.204l-0,40.625c-0,48.819 -39.635,88.454 -88.454,88.454l-40.625,-0c-3.976,-0 -7.204,-3.228 -7.204,-7.204c0,-3.976 3.228,-7.204 7.204,-7.204l40.625,0c40.867,0 74.046,-33.179 74.046,-74.046l0,-40.625Zm-195.921,114.671c3.976,0 7.204,3.228 7.204,7.204c-0,3.976 -3.228,7.204 -7.204,7.204l-40.625,-0c-48.819,-0 -88.454,-39.635 -88.454,-88.454l0,-40.625c0,-3.976 3.228,-7.204 7.204,-7.204c3.976,0 7.204,3.228 7.204,7.204l-0,40.625c-0,40.867 33.179,74.046 74.046,74.046l40.625,0Zm-114.671,-195.921c-0,3.976 -3.228,7.204 -7.204,7.204c-3.976,-0 -7.204,-3.228 -7.204,-7.204l0,-40.625c0,-48.819 39.635,-88.454 88.454,-88.454l40.625,0c3.976,0 7.204,3.228 7.204,7.204c-0,3.976 -3.228,7.204 -7.204,7.204l-40.625,-0c-40.867,-0 -74.046,33.179 -74.046,74.046l-0,40.625Z" style="fill:#576fca;"/><path d="M424.5,174.75l0,162.5c0,44.843 -36.407,81.25 -81.25,81.25l-162.5,0c-44.843,0 -81.25,-36.407 -81.25,-81.25l0,-162.5c0,-44.843 36.407,-81.25 81.25,-81.25l162.5,0c44.843,0 81.25,36.407 81.25,81.25Z" style="fill:#fff;"/><g transform="matrix(326.319,0,0,326.319,289.579,370.212)"></g><text x="113.041px" y="370.212px" style="font-family:'Cabin-Regular', 'Cabin';font-size:326.319px;fill:#7d73cc;">3</text><path d="M311.105,307.593c-0,0 -67.333,-168.221 18.241,-167.872c85.574,0.348 53.128,99.775 26.595,167.809" style="fill:none;stroke:#7d73cc;stroke-width:14.41px;"/><rect x="310.862" y="331.653" width="48.918" height="5.804" style="fill:none;stroke:#7d73cc;stroke-width:14.41px;"/><path d="M359.78,355.697l0,5.804l-48.918,0l-0,-5.804l48.918,0Zm-25.288,0c7.551,0 13.681,3.716 13.681,8.292c-0,4.576 -6.13,8.291 -13.681,8.291c-7.55,-0 -13.681,-3.715 -13.681,-8.291c0,-4.576 6.131,-8.292 13.681,-8.292Z" style="fill:none;"/><clipPath id="_clip1"><path d="M359.78,355.697l0,5.804l-48.918,0l-0,-5.804l48.918,0Zm-25.288,0c7.551,0 13.681,3.716 13.681,8.292c-0,4.576 -6.13,8.291 -13.681,8.291c-7.55,-0 -13.681,-3.715 -13.681,-8.291c0,-4.576 6.131,-8.292 13.681,-8.292Z"/></clipPath><g clip-path="url(#_clip1)"><g><path d="M424.5,174.75l0,162.5c0,44.843 -36.407,81.25 -81.25,81.25l-162.5,0c-44.843,0 -81.25,-36.407 -81.25,-81.25l0,-162.5c0,-44.843 36.407,-81.25 81.25,-81.25l162.5,0c44.843,0 81.25,36.407 81.25,81.25Z" style="fill:#fff;"/><path d="M302.625,100.704c-3.976,-0 -7.204,-3.228 -7.204,-7.204c0,-3.976 3.228,-7.204 7.204,-7.204l40.625,0c48.819,0 88.454,39.635 88.454,88.454l-0,40.625c-0,3.976 -3.228,7.204 -7.204,7.204c-3.976,-0 -7.204,-3.228 -7.204,-7.204l0,-40.625c0,-40.867 -33.179,-74.046 -74.046,-74.046l-40.625,-0Zm114.671,195.921c0,-3.976 3.228,-7.204 7.204,-7.204c3.976,0 7.204,3.228 7.204,7.204l-0,40.625c-0,48.819 -39.635,88.454 -88.454,88.454l-40.625,-0c-3.976,-0 -7.204,-3.228 -7.204,-7.204c0,-3.976 3.228,-7.204 7.204,-7.204l40.625,0c40.867,0 74.046,-33.179 74.046,-74.046l0,-40.625Zm-195.921,114.671c3.976,0 7.204,3.228 7.204,7.204c-0,3.976 -3.228,7.204 -7.204,7.204l-40.625,-0c-48.819,-0 -88.454,-39.635 -88.454,-88.454l0,-40.625c0,-3.976 3.228,-7.204 7.204,-7.204c3.976,0 7.204,3.228 7.204,7.204l-0,40.625c-0,40.867 33.179,74.046 74.046,74.046l40.625,0Zm-114.671,-195.921c-0,3.976 -3.228,7.204 -7.204,7.204c-3.976,-0 -7.204,-3.228 -7.204,-7.204l0,-40.625c0,-48.819 39.635,-88.454 88.454,-88.454l40.625,0c3.976,0 7.204,3.228 7.204,7.204c-0,3.976 -3.228,7.204 -7.204,7.204l-40.625,-0c-40.867,-0 -74.046,33.179 -74.046,74.046l-0,40.625Z" style="fill:#576fca;"/><g transform="matrix(326.319,0,0,326.319,289.579,370.212)"></g><text x="113.041px" y="370.212px" style="font-family:'Cabin-Regular', 'Cabin';font-size:326.319px;fill:#fff;">3</text><path d="M311.105,307.593c-0,0 -67.333,-168.221 18.241,-167.872c85.574,0.348 53.128,99.775 26.595,167.809" style="fill:#fff;stroke:#7d73cc;stroke-width:14.41px;"/><rect x="310.862" y="331.653" width="48.918" height="5.804" style="fill:#fff;stroke:#7d73cc;stroke-width:14.41px;"/><path d="M359.78,355.697l0,5.804l-48.918,0l-0,-5.804l48.918,0Zm-25.288,0c7.551,0 13.681,3.716 13.681,8.292c-0,4.576 -6.13,8.291 -13.681,8.291c-7.55,-0 -13.681,-3.715 -13.681,-8.291c0,-4.576 6.131,-8.292 13.681,-8.292Z" style="fill:#fff;stroke:#2e2370;stroke-width:14.41px;"/></g></g><path d="M359.78,355.697l0,5.804l-48.918,0l-0,-5.804l48.918,0Zm-25.288,0c7.551,0 13.681,3.716 13.681,8.292c-0,4.576 -6.13,8.291 -13.681,8.291c-7.55,-0 -13.681,-3.715 -13.681,-8.291c0,-4.576 6.131,-8.292 13.681,-8.292Z" style="fill:none;stroke:#2e2370;stroke-width:14.41px;"/></g></svg>